<mxfile host="app.diagrams.net" modified="2024-03-17T15:48:37.107Z" agent="Mozilla/5.0 (Windows NT 10.0; Win64; x64) AppleWebKit/537.36 (KHTML, like Gecko) Chrome/122.0.0.0 Safari/537.36" version="24.0.5" etag="vzh2nPF_2dPSbraB4ocg" type="github">
  <diagram name="第 1 页" id="Q2QGKM70c_vC7_SiPC-H">
    <mxGraphModel>
      <root>
        <mxCell id="0" />
        <mxCell id="1" parent="0" />
      </root>
    </mxGraphModel>
  </diagram>
</mxfile>
